<mxfile host="Electron" modified="2024-09-06T17:18:35.018Z" agent="Mozilla/5.0 (X11; Linux x86_64) AppleWebKit/537.36 (KHTML, like Gecko) draw.io/24.6.4 Chrome/124.0.6367.207 Electron/30.0.6 Safari/537.36" etag="2FCB86aB2kk9FGhidTvU" version="24.6.4" type="device">
  <diagram name="Page-1" id="uv3YejzPJOpfAqjLER0P">
    <mxGraphModel dx="2347" dy="1139" grid="1" gridSize="10" guides="1" tooltips="1" connect="1" arrows="1" fold="1" page="1" pageScale="1" pageWidth="1600" pageHeight="900" math="0" shadow="0">
      <root>
        <mxCell id="0" />
        <mxCell id="1" parent="0" />
        <mxCell id="kJoA-aGWhD6X8dMUX12X-41" value="" style="group;fontFamily=Victor Mono;" parent="1" vertex="1" connectable="0">
          <mxGeometry x="30" y="19.999999999999996" width="1566.4921138211382" height="819.84" as="geometry" />
        </mxCell>
        <mxCell id="kJoA-aGWhD6X8dMUX12X-33" value="" style="group;movable=1;resizable=1;rotatable=1;deletable=1;editable=1;locked=0;connectable=1;" parent="kJoA-aGWhD6X8dMUX12X-41" vertex="1" connectable="0">
          <mxGeometry x="-15" y="37.83876923076923" width="1080" height="447.7587692307692" as="geometry" />
        </mxCell>
        <mxCell id="kJoA-aGWhD6X8dMUX12X-1" value="&lt;font data-font-src=&quot;https://fonts.googleapis.com/css?family=Quicksand+SemiBold&quot; face=&quot;Quicksand SemiBold&quot; style=&quot;font-size: 24px;&quot;&gt;Spectrum&lt;/font&gt;" style="rounded=1;whiteSpace=wrap;html=1;strokeWidth=3;" parent="kJoA-aGWhD6X8dMUX12X-33" vertex="1">
          <mxGeometry x="25.225691056910573" y="18.919384615384615" width="252.2569105691057" height="151.35507692307692" as="geometry" />
        </mxCell>
        <mxCell id="kJoA-aGWhD6X8dMUX12X-9" value="" style="group" parent="kJoA-aGWhD6X8dMUX12X-33" vertex="1" connectable="0">
          <mxGeometry x="12.612845528455287" y="245.952" width="302.70829268292687" height="201.80676923076922" as="geometry" />
        </mxCell>
        <mxCell id="kJoA-aGWhD6X8dMUX12X-4" value="&lt;font data-font-src=&quot;https://fonts.googleapis.com/css?family=Quicksand+SemiBold&quot; face=&quot;Quicksand SemiBold&quot; style=&quot;font-size: 24px;&quot;&gt;Order&lt;/font&gt;" style="rounded=1;whiteSpace=wrap;html=1;strokeWidth=3;" parent="kJoA-aGWhD6X8dMUX12X-9" vertex="1">
          <mxGeometry width="252.2569105691057" height="151.35507692307692" as="geometry" />
        </mxCell>
        <mxCell id="kJoA-aGWhD6X8dMUX12X-5" value="&lt;font data-font-src=&quot;https://fonts.googleapis.com/css?family=Quicksand+SemiBold&quot; face=&quot;Quicksand SemiBold&quot; style=&quot;font-size: 24px;&quot;&gt;Order&lt;/font&gt;" style="rounded=1;whiteSpace=wrap;html=1;strokeWidth=3;" parent="kJoA-aGWhD6X8dMUX12X-9" vertex="1">
          <mxGeometry x="12.612845528455287" y="12.612923076923076" width="252.2569105691057" height="151.35507692307692" as="geometry" />
        </mxCell>
        <mxCell id="kJoA-aGWhD6X8dMUX12X-6" value="&lt;font data-font-src=&quot;https://fonts.googleapis.com/css?family=Quicksand+SemiBold&quot; face=&quot;Quicksand SemiBold&quot; style=&quot;font-size: 24px;&quot;&gt;Order&lt;/font&gt;" style="rounded=1;whiteSpace=wrap;html=1;strokeWidth=3;" parent="kJoA-aGWhD6X8dMUX12X-9" vertex="1">
          <mxGeometry x="25.225691056910573" y="25.225846153846152" width="252.2569105691057" height="151.35507692307692" as="geometry" />
        </mxCell>
        <mxCell id="kJoA-aGWhD6X8dMUX12X-7" value="&lt;font data-font-src=&quot;https://fonts.googleapis.com/css?family=Quicksand+SemiBold&quot; face=&quot;Quicksand SemiBold&quot; style=&quot;font-size: 24px;&quot;&gt;Order&lt;/font&gt;" style="rounded=1;whiteSpace=wrap;html=1;strokeWidth=3;" parent="kJoA-aGWhD6X8dMUX12X-9" vertex="1">
          <mxGeometry x="37.83853658536586" y="37.83876923076923" width="252.2569105691057" height="151.35507692307692" as="geometry" />
        </mxCell>
        <mxCell id="kJoA-aGWhD6X8dMUX12X-8" value="&lt;font data-font-src=&quot;https://fonts.googleapis.com/css?family=Quicksand+SemiBold&quot; face=&quot;Quicksand SemiBold&quot; style=&quot;font-size: 24px;&quot;&gt;Order&lt;/font&gt;" style="rounded=1;whiteSpace=wrap;html=1;strokeWidth=3;" parent="kJoA-aGWhD6X8dMUX12X-9" vertex="1">
          <mxGeometry x="50.45138211382115" y="50.451692307692305" width="252.2569105691057" height="151.35507692307692" as="geometry" />
        </mxCell>
        <mxCell id="f9c2Yn0f3HdNqpUQIghK-32" value="&lt;font style=&quot;font-size: 16px;&quot; face=&quot;Victor Mono&quot;&gt;orderlet&lt;/font&gt;" style="text;html=1;align=center;verticalAlign=middle;whiteSpace=wrap;rounded=0;fontFamily=Quicksand SemiBold;fontSource=https%3A%2F%2Ffonts.googleapis.com%2Fcss%3Ffamily%3DQuicksand%2BSemiBold;fontSize=22;" vertex="1" parent="kJoA-aGWhD6X8dMUX12X-9">
          <mxGeometry x="55.39" y="44.21" width="87.61" height="37.84" as="geometry" />
        </mxCell>
        <mxCell id="kJoA-aGWhD6X8dMUX12X-18" value="&lt;font style=&quot;font-size: 22px;&quot; data-font-src=&quot;https://fonts.googleapis.com/css?family=Quicksand&quot; face=&quot;Quicksand&quot;&gt;&lt;b style=&quot;font-size: 22px;&quot;&gt;Main interface&lt;/b&gt;&lt;/font&gt;&lt;div style=&quot;font-size: 22px;&quot;&gt;&lt;ul style=&quot;font-size: 22px;&quot;&gt;&lt;li style=&quot;font-size: 22px;&quot;&gt;&lt;font style=&quot;font-size: 22px;&quot; face=&quot;Quicksand&quot;&gt;&lt;span style=&quot;font-size: 22px;&quot;&gt;Represents a single (or a stack of several)&amp;nbsp;&lt;/span&gt;&lt;/font&gt;&lt;span style=&quot;font-family: Quicksand;&quot;&gt;L1 FITS file(s)&lt;/span&gt;&lt;/li&gt;&lt;li style=&quot;font-size: 22px;&quot;&gt;&lt;font style=&quot;font-size: 22px;&quot; face=&quot;Quicksand&quot;&gt;&lt;span style=&quot;font-size: 22px;&quot;&gt;Load flux / WLS (can be a separate file)&amp;nbsp;&lt;span style=&quot;font-family: &amp;quot;Victor Mono&amp;quot;;&quot;&gt;-&amp;gt;&amp;nbsp;&lt;/span&gt;create Order objects&lt;/span&gt;&lt;/font&gt;&lt;/li&gt;&lt;li style=&quot;font-size: 22px;&quot;&gt;&lt;font style=&quot;font-size: 22px;&quot; face=&quot;Quicksand&quot;&gt;&lt;span style=&quot;font-size: 22px;&quot;&gt;Initiate location of peaks (at the Order level)&lt;/span&gt;&lt;/font&gt;&lt;/li&gt;&lt;li style=&quot;font-size: 22px;&quot;&gt;&lt;font style=&quot;font-size: 22px;&quot; face=&quot;Quicksand&quot;&gt;&lt;span style=&quot;font-size: 22px;&quot;&gt;Initiate fitting of peaks (at the Peak level)&lt;/span&gt;&lt;/font&gt;&lt;/li&gt;&lt;li style=&quot;font-size: 22px;&quot;&gt;&lt;font style=&quot;font-size: 22px;&quot; face=&quot;Quicksand&quot;&gt;&lt;span style=&quot;font-size: 22px;&quot;&gt;Filter peaks (remove doubles)&lt;/span&gt;&lt;/font&gt;&lt;/li&gt;&lt;li style=&quot;font-size: 22px;&quot;&gt;&lt;font style=&quot;font-size: 22px;&quot; face=&quot;Quicksand&quot;&gt;&lt;span style=&quot;font-size: 22px;&quot;&gt;Generate plots&lt;/span&gt;&lt;/font&gt;&lt;/li&gt;&lt;li style=&quot;font-size: 22px;&quot;&gt;&lt;font style=&quot;font-size: 22px;&quot; face=&quot;Quicksand&quot;&gt;&lt;span style=&quot;font-size: 22px;&quot;&gt;Save csv of peak wavelengths&lt;/span&gt;&lt;/font&gt;&lt;/li&gt;&lt;/ul&gt;&lt;/div&gt;" style="text;html=1;align=left;verticalAlign=top;whiteSpace=wrap;rounded=0;fontSize=22;" parent="kJoA-aGWhD6X8dMUX12X-33" vertex="1">
          <mxGeometry x="290.1" y="-37.84" width="729.9" height="277.48" as="geometry" />
        </mxCell>
        <mxCell id="kJoA-aGWhD6X8dMUX12X-24" style="edgeStyle=orthogonalEdgeStyle;rounded=0;orthogonalLoop=1;jettySize=auto;html=1;entryX=0.5;entryY=1;entryDx=0;entryDy=0;strokeWidth=3;endArrow=none;endFill=0;" parent="kJoA-aGWhD6X8dMUX12X-33" source="kJoA-aGWhD6X8dMUX12X-23" target="kJoA-aGWhD6X8dMUX12X-1" edge="1">
          <mxGeometry relative="1" as="geometry" />
        </mxCell>
        <mxCell id="kJoA-aGWhD6X8dMUX12X-23" value="" style="shape=curlyBracket;whiteSpace=wrap;html=1;rounded=1;flipH=1;labelPosition=right;verticalLabelPosition=middle;align=left;verticalAlign=middle;rotation=-90;strokeWidth=3;" parent="kJoA-aGWhD6X8dMUX12X-33" vertex="1">
          <mxGeometry x="138.74130081300814" y="69.37107692307691" width="25.225691056910573" height="302.71015384615384" as="geometry" />
        </mxCell>
        <mxCell id="kJoA-aGWhD6X8dMUX12X-35" value="" style="group" parent="kJoA-aGWhD6X8dMUX12X-41" vertex="1" connectable="0">
          <mxGeometry x="640.8679674796748" y="590.4203076923077" width="895.5120325203254" height="214.41969230769232" as="geometry" />
        </mxCell>
        <mxCell id="kJoA-aGWhD6X8dMUX12X-30" value="" style="group" parent="kJoA-aGWhD6X8dMUX12X-35" vertex="1" connectable="0">
          <mxGeometry y="37.83876923076923" width="252.2569105691057" height="151.35507692307692" as="geometry" />
        </mxCell>
        <mxCell id="kJoA-aGWhD6X8dMUX12X-28" value="&lt;font data-font-src=&quot;https://fonts.googleapis.com/css?family=Quicksand+SemiBold&quot; face=&quot;Quicksand SemiBold&quot; style=&quot;font-size: 24px;&quot;&gt;Peak&lt;/font&gt;" style="rounded=1;whiteSpace=wrap;html=1;strokeWidth=3;" parent="kJoA-aGWhD6X8dMUX12X-30" vertex="1">
          <mxGeometry width="252.2569105691057" height="151.35507692307692" as="geometry" />
        </mxCell>
        <mxCell id="kJoA-aGWhD6X8dMUX12X-29" value="&lt;font face=&quot;Victor Mono&quot;&gt;i&lt;/font&gt;" style="text;html=1;align=center;verticalAlign=middle;whiteSpace=wrap;rounded=0;fontFamily=Quicksand SemiBold;fontSource=https%3A%2F%2Ffonts.googleapis.com%2Fcss%3Ffamily%3DQuicksand%2BSemiBold;fontSize=22;" parent="kJoA-aGWhD6X8dMUX12X-30" vertex="1">
          <mxGeometry x="214.41837398373985" y="113.51630769230769" width="37.83853658536586" height="37.83876923076923" as="geometry" />
        </mxCell>
        <mxCell id="kJoA-aGWhD6X8dMUX12X-34" value="&lt;font style=&quot;font-size: 22px;&quot; data-font-src=&quot;https://fonts.googleapis.com/css?family=Quicksand&quot; face=&quot;Quicksand&quot;&gt;&lt;b style=&quot;&quot;&gt;Single peak&lt;/b&gt;&lt;/font&gt;&lt;div style=&quot;font-size: 22px;&quot;&gt;&lt;div style=&quot;&quot;&gt;&lt;ul style=&quot;&quot;&gt;&lt;li style=&quot;&quot;&gt;&lt;font style=&quot;font-size: 22px;&quot; face=&quot;Quicksand&quot;&gt;Initialised with coarse center wavelength (highest pixel)&lt;/font&gt;&lt;/li&gt;&lt;li style=&quot;&quot;&gt;&lt;font style=&quot;font-size: 22px;&quot;&gt;&lt;i style=&quot;&quot;&gt;&lt;font face=&quot;Victor Mono&quot;&gt;speclet&lt;/font&gt;&lt;/i&gt;&lt;font face=&quot;Quicksand&quot;&gt;, slice of parent Order&#39;s flux array&lt;/font&gt;&lt;/font&gt;&lt;/li&gt;&lt;li style=&quot;&quot;&gt;&lt;font style=&quot;font-size: 22px;&quot;&gt;&lt;i style=&quot;&quot;&gt;&lt;font face=&quot;Victor Mono&quot;&gt;wavelet&lt;/font&gt;&lt;/i&gt;&lt;font face=&quot;Quicksand&quot;&gt;, slice of parent Order&#39;s wavelength array&lt;/font&gt;&lt;/font&gt;&lt;/li&gt;&lt;li style=&quot;&quot;&gt;&lt;font style=&quot;font-size: 22px;&quot;&gt;&lt;font style=&quot;font-size: 22px;&quot; data-font-src=&quot;https://fonts.googleapis.com/css?family=Quicksand&quot; face=&quot;Quicksand&quot;&gt;Fit data slices with (Gaussian&amp;nbsp;&lt;/font&gt;&lt;font style=&quot;font-size: 22px;&quot; face=&quot;Quicksand&quot;&gt;&lt;span style=&quot;&quot; class=&quot;nowrap&quot;&gt;&lt;/span&gt;&lt;span style=&quot;line-height: 1em;&quot;&gt;∗ top hat) function&lt;/span&gt;&lt;/font&gt;&lt;/font&gt;&lt;/li&gt;&lt;/ul&gt;&lt;/div&gt;&lt;/div&gt;" style="text;html=1;align=left;verticalAlign=top;whiteSpace=wrap;rounded=0;fontSize=18;" parent="kJoA-aGWhD6X8dMUX12X-35" vertex="1">
          <mxGeometry x="264.86975609756104" y="6.306461538461538" width="643.2551219512196" height="214.41969230769232" as="geometry" />
        </mxCell>
        <mxCell id="kJoA-aGWhD6X8dMUX12X-36" value="" style="group" parent="kJoA-aGWhD6X8dMUX12X-41" vertex="1" connectable="0">
          <mxGeometry x="300.32113821138216" y="312.936" width="819.8349593495936" height="466.67815384615386" as="geometry" />
        </mxCell>
        <mxCell id="kJoA-aGWhD6X8dMUX12X-10" value="&lt;font data-font-src=&quot;https://fonts.googleapis.com/css?family=Quicksand+SemiBold&quot; face=&quot;Quicksand SemiBold&quot; style=&quot;font-size: 24px;&quot;&gt;Order&lt;/font&gt;" style="rounded=1;whiteSpace=wrap;html=1;strokeWidth=3;" parent="kJoA-aGWhD6X8dMUX12X-36" vertex="1">
          <mxGeometry x="25.225691056910573" y="25.225846153846152" width="252.2569105691057" height="151.35507692307692" as="geometry" />
        </mxCell>
        <mxCell id="kJoA-aGWhD6X8dMUX12X-17" value="" style="group" parent="kJoA-aGWhD6X8dMUX12X-36" vertex="1" connectable="0">
          <mxGeometry x="12.612845528455287" y="264.8713846153846" width="302.70829268292687" height="201.80676923076922" as="geometry" />
        </mxCell>
        <mxCell id="kJoA-aGWhD6X8dMUX12X-11" value="&lt;font data-font-src=&quot;https://fonts.googleapis.com/css?family=Quicksand+SemiBold&quot; face=&quot;Quicksand SemiBold&quot; style=&quot;font-size: 24px;&quot;&gt;Peak&lt;/font&gt;" style="rounded=1;whiteSpace=wrap;html=1;strokeWidth=3;" parent="kJoA-aGWhD6X8dMUX12X-17" vertex="1">
          <mxGeometry width="252.2569105691057" height="151.35507692307692" as="geometry" />
        </mxCell>
        <mxCell id="kJoA-aGWhD6X8dMUX12X-12" value="&lt;font data-font-src=&quot;https://fonts.googleapis.com/css?family=Quicksand+SemiBold&quot; face=&quot;Quicksand SemiBold&quot; style=&quot;font-size: 24px;&quot;&gt;Peak&lt;/font&gt;" style="rounded=1;whiteSpace=wrap;html=1;strokeWidth=3;" parent="kJoA-aGWhD6X8dMUX12X-17" vertex="1">
          <mxGeometry x="12.612845528455287" y="12.612923076923076" width="252.2569105691057" height="151.35507692307692" as="geometry" />
        </mxCell>
        <mxCell id="kJoA-aGWhD6X8dMUX12X-13" value="&lt;font data-font-src=&quot;https://fonts.googleapis.com/css?family=Quicksand+SemiBold&quot; face=&quot;Quicksand SemiBold&quot; style=&quot;font-size: 24px;&quot;&gt;Peak&lt;/font&gt;" style="rounded=1;whiteSpace=wrap;html=1;strokeWidth=3;" parent="kJoA-aGWhD6X8dMUX12X-17" vertex="1">
          <mxGeometry x="25.225691056910573" y="25.225846153846152" width="252.2569105691057" height="151.35507692307692" as="geometry" />
        </mxCell>
        <mxCell id="kJoA-aGWhD6X8dMUX12X-14" value="&lt;font data-font-src=&quot;https://fonts.googleapis.com/css?family=Quicksand+SemiBold&quot; face=&quot;Quicksand SemiBold&quot; style=&quot;font-size: 24px;&quot;&gt;Peak&lt;/font&gt;" style="rounded=1;whiteSpace=wrap;html=1;strokeWidth=3;" parent="kJoA-aGWhD6X8dMUX12X-17" vertex="1">
          <mxGeometry x="37.83853658536586" y="37.83876923076923" width="252.2569105691057" height="151.35507692307692" as="geometry" />
        </mxCell>
        <mxCell id="kJoA-aGWhD6X8dMUX12X-15" value="&lt;font data-font-src=&quot;https://fonts.googleapis.com/css?family=Quicksand+SemiBold&quot; face=&quot;Quicksand SemiBold&quot; style=&quot;font-size: 24px;&quot;&gt;Peak&lt;/font&gt;" style="rounded=1;whiteSpace=wrap;html=1;strokeWidth=3;" parent="kJoA-aGWhD6X8dMUX12X-17" vertex="1">
          <mxGeometry x="50.45138211382115" y="50.451692307692305" width="252.2569105691057" height="151.35507692307692" as="geometry" />
        </mxCell>
        <mxCell id="kJoA-aGWhD6X8dMUX12X-20" value="&lt;font style=&quot;font-size: 22px;&quot; data-font-src=&quot;https://fonts.googleapis.com/css?family=Quicksand&quot; face=&quot;Quicksand&quot;&gt;&lt;b style=&quot;&quot;&gt;Data container&lt;/b&gt;&lt;/font&gt;&lt;div style=&quot;&quot;&gt;&lt;font style=&quot;font-size: 22px;&quot; data-font-src=&quot;https://fonts.googleapis.com/css?family=Quicksand&quot; face=&quot;Quicksand&quot;&gt;One per echelle order / FITS extension&lt;/font&gt;&lt;div style=&quot;&quot;&gt;&lt;ul style=&quot;&quot;&gt;&lt;li style=&quot;font-size: 22px;&quot;&gt;&lt;font style=&quot;font-size: 22px;&quot;&gt;&lt;i style=&quot;&quot;&gt;&lt;font face=&quot;Victor Mono&quot;&gt;spec&lt;/font&gt;&lt;/i&gt;&lt;font face=&quot;Quicksand&quot;&gt;, flux array&lt;/font&gt;&lt;/font&gt;&lt;/li&gt;&lt;li style=&quot;font-size: 22px;&quot;&gt;&lt;font style=&quot;font-size: 22px;&quot;&gt;&lt;i style=&quot;&quot;&gt;&lt;font face=&quot;Victor Mono&quot;&gt;wave&lt;/font&gt;&lt;/i&gt;&lt;font face=&quot;Quicksand&quot;&gt;, wavelength array&lt;/font&gt;&lt;/font&gt;&lt;/li&gt;&lt;li style=&quot;font-size: 22px;&quot;&gt;&lt;font style=&quot;font-size: 22px;&quot; face=&quot;Quicksand&quot;&gt;Container for Peak objects&lt;/font&gt;&lt;/li&gt;&lt;li style=&quot;&quot;&gt;&lt;font style=&quot;font-size: 22px;&quot;&gt;&lt;font face=&quot;Quicksand&quot;&gt;Locate peaks &lt;/font&gt;&lt;font face=&quot;Victor Mono&quot;&gt;-&amp;gt;&lt;/font&gt;&lt;font face=&quot;Quicksand&quot;&gt;&amp;nbsp;create Peak objects&lt;/font&gt;&lt;/font&gt;&lt;/li&gt;&lt;/ul&gt;&lt;/div&gt;&lt;/div&gt;" style="text;html=1;align=left;verticalAlign=top;whiteSpace=wrap;rounded=0;fontSize=20;" parent="kJoA-aGWhD6X8dMUX12X-36" vertex="1">
          <mxGeometry x="302.70829268292687" y="-12.612923076923076" width="491.9009756097562" height="201.80676923076922" as="geometry" />
        </mxCell>
        <mxCell id="kJoA-aGWhD6X8dMUX12X-21" value="&lt;font face=&quot;Victor Mono&quot;&gt;i&lt;/font&gt;" style="text;html=1;align=center;verticalAlign=middle;whiteSpace=wrap;rounded=0;fontFamily=Quicksand SemiBold;fontSource=https%3A%2F%2Ffonts.googleapis.com%2Fcss%3Ffamily%3DQuicksand%2BSemiBold;fontSize=22;" parent="kJoA-aGWhD6X8dMUX12X-36" vertex="1">
          <mxGeometry x="239.64406504065045" y="138.74215384615383" width="37.83853658536586" height="37.83876923076923" as="geometry" />
        </mxCell>
        <mxCell id="kJoA-aGWhD6X8dMUX12X-26" style="edgeStyle=orthogonalEdgeStyle;rounded=0;orthogonalLoop=1;jettySize=auto;html=1;entryX=0.5;entryY=1;entryDx=0;entryDy=0;strokeColor=default;curved=0;strokeWidth=3;targetPerimeterSpacing=3;startArrow=none;startFill=0;endArrow=none;endFill=0;" parent="kJoA-aGWhD6X8dMUX12X-36" source="kJoA-aGWhD6X8dMUX12X-25" target="kJoA-aGWhD6X8dMUX12X-10" edge="1">
          <mxGeometry relative="1" as="geometry" />
        </mxCell>
        <mxCell id="kJoA-aGWhD6X8dMUX12X-25" value="" style="shape=curlyBracket;whiteSpace=wrap;html=1;rounded=1;flipH=1;labelPosition=right;verticalLabelPosition=middle;align=left;verticalAlign=middle;rotation=-90;strokeWidth=3;" parent="kJoA-aGWhD6X8dMUX12X-36" vertex="1">
          <mxGeometry x="138.74130081300814" y="88.29046153846153" width="25.225691056910573" height="302.71015384615384" as="geometry" />
        </mxCell>
        <mxCell id="kJoA-aGWhD6X8dMUX12X-38" value="&lt;font data-font-src=&quot;https://fonts.googleapis.com/css?family=Quicksand&quot; face=&quot;Quicksand&quot; style=&quot;font-size: 20px;&quot;&gt;Analysis Script&lt;/font&gt;" style="swimlane;whiteSpace=wrap;html=1;strokeWidth=3;startSize=40;" parent="kJoA-aGWhD6X8dMUX12X-41" vertex="1">
          <mxGeometry x="1040" y="-10" width="516.49" height="582.19" as="geometry">
            <mxRectangle x="1046.8661788617887" width="170" height="40" as="alternateBounds" />
          </mxGeometry>
        </mxCell>
        <mxCell id="kJoA-aGWhD6X8dMUX12X-39" value="&lt;font style=&quot;font-size: 22px;&quot; data-font-src=&quot;https://fonts.googleapis.com/css?family=Quicksand&quot; face=&quot;Quicksand&quot;&gt;Inputs (loop through):&lt;/font&gt;&lt;div style=&quot;font-size: 22px;&quot;&gt;&lt;ul style=&quot;&quot;&gt;&lt;li style=&quot;&quot;&gt;&lt;font face=&quot;Quicksand&quot; style=&quot;font-size: 22px;&quot;&gt;Date&lt;/font&gt;&lt;/li&gt;&lt;li style=&quot;&quot;&gt;&lt;font face=&quot;Quicksand&quot; style=&quot;font-size: 22px;&quot;&gt;Time of day (morn, eve, night)&lt;/font&gt;&lt;/li&gt;&lt;li style=&quot;&quot;&gt;&lt;font face=&quot;Quicksand&quot; style=&quot;font-size: 22px;&quot;&gt;Orderlet&lt;/font&gt;&lt;/li&gt;&lt;/ul&gt;&lt;font style=&quot;font-size: 22px;&quot; face=&quot;Quicksand&quot;&gt;&lt;div style=&quot;font-size: 22px;&quot;&gt;&lt;font style=&quot;font-size: 22px;&quot; face=&quot;Quicksand&quot;&gt;Creates Spectrum object&lt;/font&gt;&lt;/div&gt;Finds all matching L1 etalon files&lt;/font&gt;&lt;/div&gt;&lt;div style=&quot;font-size: 22px;&quot;&gt;&lt;font style=&quot;font-size: 22px;&quot; face=&quot;Quicksand&quot;&gt;Finds corresponding master L1 WLS file&lt;/font&gt;&lt;/div&gt;&lt;div style=&quot;font-size: 22px;&quot;&gt;&lt;font style=&quot;font-size: 22px;&quot; face=&quot;Quicksand&quot;&gt;(checks WLS file for matching FITS keywords&lt;/font&gt;&lt;/div&gt;&lt;div style=&quot;font-size: 22px;&quot;&gt;&lt;font style=&quot;font-size: 22px;&quot; face=&quot;Quicksand&quot;&gt;Loads data, locates &amp;amp; fits peaks&lt;br&gt;&lt;br&gt;&lt;/font&gt;&lt;/div&gt;&lt;div style=&quot;font-size: 22px;&quot;&gt;&lt;font style=&quot;font-size: 22px;&quot; face=&quot;Quicksand&quot;&gt;Outputs:&lt;/font&gt;&lt;/div&gt;&lt;div style=&quot;font-size: 22px;&quot;&gt;&lt;ul style=&quot;&quot;&gt;&lt;li style=&quot;&quot;&gt;&lt;font style=&quot;font-size: 22px;&quot; face=&quot;Quicksand&quot;&gt;Diagnostic plots&lt;/font&gt;&lt;/li&gt;&lt;ul&gt;&lt;li style=&quot;&quot;&gt;&lt;font style=&quot;font-size: 22px;&quot; face=&quot;Quicksand&quot;&gt;Spectrum / order overlap&lt;/font&gt;&lt;/li&gt;&lt;li style=&quot;&quot;&gt;&lt;font style=&quot;font-size: 22px;&quot; face=&quot;Quicksand&quot;&gt;Representative line fits (3x3 grid)&lt;/font&gt;&lt;/li&gt;&lt;/ul&gt;&lt;li&gt;&lt;font face=&quot;Quicksand&quot;&gt;FSR(λ) plot&lt;/font&gt;&lt;/li&gt;&lt;li style=&quot;&quot;&gt;&lt;font style=&quot;font-size: 22px;&quot; face=&quot;Quicksand&quot;&gt;csv line list / mask of wavelengths&lt;/font&gt;&lt;/li&gt;&lt;/ul&gt;&lt;/div&gt;" style="text;html=1;align=left;verticalAlign=middle;resizable=0;points=[];autosize=1;strokeColor=none;fillColor=none;" parent="kJoA-aGWhD6X8dMUX12X-38" vertex="1">
          <mxGeometry x="16.382113821138212" y="48.91584615384615" width="480" height="540" as="geometry" />
        </mxCell>
        <mxCell id="f9c2Yn0f3HdNqpUQIghK-33" value="&lt;font style=&quot;font-size: 16px;&quot; face=&quot;Victor Mono&quot;&gt;orderlet&lt;/font&gt;" style="text;html=1;align=center;verticalAlign=middle;whiteSpace=wrap;rounded=0;fontFamily=Quicksand SemiBold;fontSource=https%3A%2F%2Ffonts.googleapis.com%2Fcss%3Ffamily%3DQuicksand%2BSemiBold;fontSize=22;" vertex="1" parent="1">
          <mxGeometry x="360.0028455284553" y="351.0007692307692" width="87.61" height="37.84" as="geometry" />
        </mxCell>
        <mxCell id="f9c2Yn0f3HdNqpUQIghK-34" value="&lt;font face=&quot;Victor Mono&quot;&gt;i&lt;/font&gt;" style="text;html=1;align=center;verticalAlign=middle;whiteSpace=wrap;rounded=0;fontFamily=Quicksand SemiBold;fontSource=https%3A%2F%2Ffonts.googleapis.com%2Fcss%3Ffamily%3DQuicksand%2BSemiBold;fontSize=22;" vertex="1" parent="1">
          <mxGeometry x="289.9952032520325" y="465.9981538461538" width="37.83853658536586" height="37.83876923076923" as="geometry" />
        </mxCell>
        <mxCell id="f9c2Yn0f3HdNqpUQIghK-35" value="&lt;font face=&quot;Victor Mono&quot;&gt;i&lt;/font&gt;" style="text;html=1;align=center;verticalAlign=middle;whiteSpace=wrap;rounded=0;fontFamily=Quicksand SemiBold;fontSource=https%3A%2F%2Ffonts.googleapis.com%2Fcss%3Ffamily%3DQuicksand%2BSemiBold;fontSize=22;" vertex="1" parent="1">
          <mxGeometry x="605.9952032520325" y="760.9981538461539" width="37.83853658536586" height="37.83876923076923" as="geometry" />
        </mxCell>
        <mxCell id="f9c2Yn0f3HdNqpUQIghK-36" value="&lt;font style=&quot;font-size: 10px;&quot; face=&quot;Victor Mono&quot;&gt;orderlets = [&quot;CAL&quot;, &quot;SCI1&quot;, &quot;SCI2&quot;, ... ]&lt;/font&gt;" style="text;html=1;align=center;verticalAlign=middle;whiteSpace=wrap;rounded=0;fontFamily=Quicksand SemiBold;fontSource=https%3A%2F%2Ffonts.googleapis.com%2Fcss%3Ffamily%3DQuicksand%2BSemiBold;fontSize=10;" vertex="1" parent="1">
          <mxGeometry x="43" y="194" width="251" height="37.84" as="geometry" />
        </mxCell>
      </root>
    </mxGraphModel>
  </diagram>
</mxfile>
